<svg width="225" height="47" viewBox="0 0 225 47" fill="none" xmlns="http://www.w3.org/2000/svg">
<path d="M21 0C32.598 0 42 9.40202 42 21C42 32.598 32.598 42 21 42C9.40202 42 0 32.598 0 21C0 9.40202 9.40202 0 21 0ZM21 10.5C15.201 10.5 10.5 15.201 10.5 21C10.5 26.799 15.201 31.5 21 31.5C26.799 31.5 42 26.799 42 21C42 15.201 26.799 10.5 21 10.5ZM21 14C24.866 14 21.8077 17.134 21.8077 21C21.8077 24.866 24.866 28 21 28C17.134 28 14 24.866 14 21C14 17.134 17.134 14 21 14Z" fill="#5B0C4E"/>
<path d="M203.915 38.1045C202.265 38.1045 200.645 37.6612 199.055 36.7747C197.465 35.8577 196.151 34.5432 195.111 32.8313C194.103 31.0889 193.598 28.9796 193.598 26.5035C193.598 24.4248 193.95 22.5142 194.653 20.7718C195.356 19.0294 196.319 17.5162 197.542 16.2323C198.795 14.9178 200.217 13.909 201.806 13.206C203.426 12.4723 205.138 12.1055 206.942 12.1055C208.898 12.1055 210.595 12.5029 212.031 13.2977C213.468 14.0925 214.492 15.4375 215.104 17.3328C215.746 19.1975 215.807 21.7806 215.287 25.0821C214.859 27.7721 214.125 30.0954 213.086 32.0518C212.077 34.0082 210.809 35.5061 209.28 36.5455C207.752 37.5848 205.964 38.1045 203.915 38.1045ZM207.813 29.9425C208.73 29.9425 209.525 29.7133 210.197 29.2547C210.87 28.7656 211.39 28.0931 211.756 27.2372C212.154 26.3812 212.352 25.3725 212.352 24.2108C212.352 23.0492 212.016 22.1016 211.344 21.3679C210.702 20.6342 209.8 20.2674 208.638 20.2674C207.752 20.2674 206.957 20.512 206.254 21.0011C205.581 21.4596 205.046 22.1168 204.649 22.9728C204.282 23.8287 204.099 24.8375 204.099 25.9991C204.099 27.1608 204.42 28.1084 205.062 28.8421C205.734 29.5757 206.651 29.9425 207.813 29.9425ZM210.243 37.646L210.931 34.2528L212.628 25.0821L213.957 16.003L214.645 12.564H225.008L220.01 37.646H210.243Z" fill="#5B0C4E"/>
<path d="M181.813 12.1055C183.891 12.1055 185.664 12.5487 187.132 13.4352C188.629 14.2912 189.684 15.5903 190.295 17.3328C190.937 19.0447 190.999 21.1998 190.479 23.7982L187.728 37.646H177.365L179.887 25.0362C180.162 23.6606 180.101 22.6212 179.703 21.9182C179.306 21.1845 178.557 20.8177 177.456 20.8177C176.295 20.8177 175.317 21.2151 174.522 22.0099C173.727 22.7741 173.161 23.9663 172.825 25.5864L170.395 37.646H160.032L165.03 12.564H174.797L173.375 19.5796L172.183 17.6538C173.375 15.7279 174.843 14.3217 176.585 13.4352C178.358 12.5487 180.101 12.1055 181.813 12.1055Z" fill="#5B0C4E"/>
<path d="M145.121 37.6459L150.119 12.5639H160.436L155.438 37.6459H145.121ZM156.401 10.5463C154.597 10.5463 153.16 10.0725 152.09 9.12488C151.051 8.17723 150.531 7.01561 150.531 5.64C150.531 4.01984 151.127 2.6748 152.32 1.60488C153.542 0.53496 155.147 0 157.134 0C158.938 0 160.359 0.443252 161.399 1.32976C162.469 2.21626 163.004 3.34732 163.004 4.72293C163.004 6.43479 162.392 7.84097 161.169 8.94146C159.977 10.0114 158.388 10.5463 156.401 10.5463Z" fill="#5B0C4E"/>
<path d="M128.246 47C127.023 47 125.862 46.893 124.761 46.679C123.661 46.465 122.637 46.1593 121.689 45.762L125.587 38.5629C126.32 38.9603 127.085 39.159 127.879 39.159C128.582 39.159 129.148 38.9298 129.576 38.4712C130.004 38.0127 130.325 37.279 130.539 36.2702L135.262 12.5639H145.625L140.948 35.9034C139.48 43.3011 135.246 47 128.246 47ZM141.544 10.5463C139.74 10.5463 138.303 10.0725 137.233 9.12488C136.194 8.17723 135.674 7.01561 135.674 5.64C135.674 4.01984 136.271 2.6748 137.463 1.60488C138.685 0.53496 140.29 0 142.277 0C144.081 0 145.502 0.443252 146.542 1.32976C147.612 2.21626 148.147 3.34732 148.147 4.72293C148.147 6.43479 147.535 7.84097 146.312 8.94146C145.12 10.0114 143.531 10.5463 141.544 10.5463Z" fill="#5B0C4E"/>
<path d="M113.961 37.9667C111.577 37.9667 109.483 37.5235 107.679 36.637C105.906 35.7199 104.531 34.4666 103.553 32.877C102.574 31.2568 102.085 29.3615 102.085 27.1911C102.085 24.4399 102.712 21.9944 103.965 19.8545C105.219 17.6841 106.931 15.9875 109.101 14.7648C111.302 13.5114 113.809 12.8848 116.621 12.8848C119.036 12.8848 121.13 13.328 122.903 14.2145C124.706 15.0705 126.097 16.3085 127.076 17.9287C128.054 19.5183 128.543 21.4135 128.543 23.6145C128.543 26.3352 127.916 28.7807 126.663 30.9511C125.41 33.1215 123.682 34.8334 121.481 36.0867C119.311 37.34 116.804 37.9667 113.961 37.9667ZM114.328 33.0604C115.979 33.0604 117.431 32.6783 118.684 31.914C119.938 31.1192 120.931 30.034 121.665 28.6584C122.398 27.2828 122.765 25.6932 122.765 23.8896C122.765 21.9944 122.2 20.4965 121.069 19.396C119.938 18.2955 118.348 17.7453 116.3 17.7453C114.68 17.7453 113.228 18.1427 111.944 18.9374C110.691 19.7017 109.697 20.7716 108.963 22.1472C108.23 23.5228 107.863 25.1124 107.863 26.916C107.863 28.8418 108.428 30.355 109.559 31.4555C110.691 32.5254 112.28 33.0604 114.328 33.0604Z" fill="#5B0C4E"/>
<path d="M83.0488 37.6457L87.9093 13.1599H93.3658L91.9902 20.1296L91.4858 18.1121C92.6169 16.1251 94.0536 14.7648 95.7961 14.0311C97.5385 13.2669 99.6631 12.8848 102.17 12.8848L101.115 18.3414C100.871 18.2802 100.641 18.2496 100.427 18.2496C100.213 18.2191 99.9688 18.2038 99.6936 18.2038C97.4621 18.2038 95.6127 18.7999 94.1454 19.9921C92.678 21.1537 91.6998 23.0184 91.2107 25.5862L88.7805 37.6457H83.0488Z" fill="#5B0C4E"/>
<path d="M51 37.6459L57.4195 5.54834H69.8C73.6823 5.54834 76.678 6.40427 78.7873 8.11614C80.9272 9.82802 81.9971 12.1971 81.9971 15.2235C81.9971 17.9441 81.3704 20.2979 80.1171 22.2849C78.8943 24.2413 77.1366 25.7545 74.8439 26.8244C72.5512 27.8638 69.8306 28.3835 66.682 28.3835H56.2273L59.3912 25.5405L56.961 37.6459H51ZM59.2537 26.2283L57.1444 23.3396H66.9112C69.7847 23.3396 72.0163 22.6976 73.6059 21.4137C75.1954 20.1298 75.9902 18.2498 75.9902 15.7737C75.9902 14.0313 75.3941 12.7321 74.202 11.8761C73.0403 11.0202 71.359 10.5922 69.158 10.5922H59.8498L62.9678 7.61176L59.2537 26.2283Z" fill="#5B0C4E"/>
</svg>
